# xmcd
#
# Track frame offsets:
#	150
#	16441
#	33197
#	51082
#	69172
#	87266
#	104033
#	122350
#	139507
#	157058
#	175420
#	196319
#
# Disc length: 2871 seconds
#
# Revision: 15
# Processed by: cddbd v1.5.2PL0 Copyright (c) Steve Scherf et al.
# Submitted via: Jack! The Knife 20 Magnifico
#
DISCID=9b0b350c
DTITLE=AC-DC - Stiff Upper Lip
DYEAR=2000
DGENRE=Hard Rock
TTITLE0=Stiff Upper Lip
TTITLE1=Meltdown
TTITLE2=House Of Jazz
TTITLE3=Hold Me Back
TTITLE4=Safe In New York City
TTITLE5=Can't Stand Still
TTITLE6=Can't Stop Rock 'n' Roll
TTITLE7=Satellite Blues
TTITLE8=Damned
TTITLE9=Come And Get It
TTITLE10=All Screwed Up
TTITLE11=Give It Up
EXTD=George Young
EXTT0=Young, Young
EXTT1=Young, Young
EXTT2=Young, Young
EXTT3=Young, Young
EXTT4=Young, Young
EXTT5=Young, Young
EXTT6=Young, Young
EXTT7=Young, Young
EXTT8=Young, Young
EXTT9=Young, Young
EXTT10=Young, Young
EXTT11=Young, Young
PLAYORDER=
